<mxfile host="app.diagrams.net" modified="2024-07-03T08:49:33.272Z" agent="Mozilla/5.0 (Windows NT 10.0; Win64; x64) AppleWebKit/537.36 (KHTML, like Gecko) Chrome/126.0.0.0 Safari/537.36" etag="NOY9UdRJIRkFHlUTWOmE" version="24.6.4" type="github">
  <diagram name="Page-1" id="wKSIusGrqr3V_k_r4DR-">
    <mxGraphModel dx="2074" dy="1140" grid="1" gridSize="10" guides="1" tooltips="1" connect="1" arrows="1" fold="1" page="1" pageScale="1" pageWidth="850" pageHeight="1100" math="0" shadow="0">
      <root>
        <mxCell id="0" />
        <mxCell id="1" parent="0" />
        <mxCell id="Agiuoe7lh5ngSEae1jQk-2" value="" style="shape=datastore;whiteSpace=wrap;html=1;" vertex="1" parent="1">
          <mxGeometry x="160" y="380" width="40" height="40" as="geometry" />
        </mxCell>
        <mxCell id="Agiuoe7lh5ngSEae1jQk-4" value="Logical Address Space" style="rounded=0;whiteSpace=wrap;html=1;fillColor=none;strokeColor=none;fontSize=15;fontFamily=Helvetica;" vertex="1" parent="1">
          <mxGeometry x="30" width="160" height="40" as="geometry" />
        </mxCell>
        <mxCell id="Agiuoe7lh5ngSEae1jQk-5" value="&lt;font style=&quot;font-size: 18px;&quot;&gt;I/O request classifier&lt;/font&gt;" style="rounded=1;whiteSpace=wrap;html=1;fillColor=none;" vertex="1" parent="1">
          <mxGeometry x="201" y="50" width="200" height="40" as="geometry" />
        </mxCell>
        <mxCell id="Agiuoe7lh5ngSEae1jQk-6" value="" style="rounded=0;whiteSpace=wrap;html=1;strokeColor=none;gradientColor=none;fillColor=#808080;" vertex="1" parent="1">
          <mxGeometry x="40" y="170" width="40" height="20" as="geometry" />
        </mxCell>
        <mxCell id="Agiuoe7lh5ngSEae1jQk-7" value="" style="rounded=0;whiteSpace=wrap;html=1;strokeColor=none;gradientColor=none;fillColor=#CCCCCC;" vertex="1" parent="1">
          <mxGeometry x="40" y="210" width="40" height="20" as="geometry" />
        </mxCell>
        <mxCell id="Agiuoe7lh5ngSEae1jQk-8" value="" style="endArrow=none;html=1;rounded=0;entryX=0.5;entryY=1;entryDx=0;entryDy=0;exitX=0.5;exitY=0;exitDx=0;exitDy=0;" edge="1" parent="1" source="Agiuoe7lh5ngSEae1jQk-7" target="Agiuoe7lh5ngSEae1jQk-6">
          <mxGeometry width="50" height="50" relative="1" as="geometry">
            <mxPoint x="80" y="250" as="sourcePoint" />
            <mxPoint x="130" y="200" as="targetPoint" />
          </mxGeometry>
        </mxCell>
        <mxCell id="Agiuoe7lh5ngSEae1jQk-9" value="" style="rounded=0;whiteSpace=wrap;html=1;strokeColor=none;gradientColor=none;fillColor=#808080;" vertex="1" parent="1">
          <mxGeometry x="100" y="170" width="40" height="20" as="geometry" />
        </mxCell>
        <mxCell id="Agiuoe7lh5ngSEae1jQk-10" value="" style="rounded=0;whiteSpace=wrap;html=1;strokeColor=none;gradientColor=none;fillColor=#CCCCCC;" vertex="1" parent="1">
          <mxGeometry x="100" y="210" width="40" height="20" as="geometry" />
        </mxCell>
        <mxCell id="Agiuoe7lh5ngSEae1jQk-11" value="" style="endArrow=none;html=1;rounded=0;entryX=0.5;entryY=1;entryDx=0;entryDy=0;exitX=0.5;exitY=0;exitDx=0;exitDy=0;" edge="1" parent="1" source="Agiuoe7lh5ngSEae1jQk-10" target="Agiuoe7lh5ngSEae1jQk-9">
          <mxGeometry width="50" height="50" relative="1" as="geometry">
            <mxPoint x="140" y="250" as="sourcePoint" />
            <mxPoint x="190" y="200" as="targetPoint" />
          </mxGeometry>
        </mxCell>
        <mxCell id="Agiuoe7lh5ngSEae1jQk-15" value="" style="rounded=0;whiteSpace=wrap;html=1;strokeColor=none;gradientColor=none;fillColor=#808080;" vertex="1" parent="1">
          <mxGeometry x="160" y="170" width="40" height="20" as="geometry" />
        </mxCell>
        <mxCell id="Agiuoe7lh5ngSEae1jQk-16" value="" style="rounded=0;whiteSpace=wrap;html=1;strokeColor=none;gradientColor=none;fillColor=#CCCCCC;" vertex="1" parent="1">
          <mxGeometry x="160" y="210" width="40" height="20" as="geometry" />
        </mxCell>
        <mxCell id="Agiuoe7lh5ngSEae1jQk-17" value="" style="endArrow=none;html=1;rounded=0;entryX=0.5;entryY=1;entryDx=0;entryDy=0;exitX=0.5;exitY=0;exitDx=0;exitDy=0;" edge="1" parent="1" source="Agiuoe7lh5ngSEae1jQk-16" target="Agiuoe7lh5ngSEae1jQk-15">
          <mxGeometry width="50" height="50" relative="1" as="geometry">
            <mxPoint x="200" y="250" as="sourcePoint" />
            <mxPoint x="250" y="200" as="targetPoint" />
          </mxGeometry>
        </mxCell>
        <mxCell id="Agiuoe7lh5ngSEae1jQk-18" value="" style="rounded=0;whiteSpace=wrap;html=1;strokeColor=none;gradientColor=none;fillColor=#808080;" vertex="1" parent="1">
          <mxGeometry x="220" y="170" width="40" height="20" as="geometry" />
        </mxCell>
        <mxCell id="Agiuoe7lh5ngSEae1jQk-19" value="" style="rounded=0;whiteSpace=wrap;html=1;strokeColor=none;gradientColor=none;fillColor=#CCCCCC;" vertex="1" parent="1">
          <mxGeometry x="220" y="210" width="40" height="20" as="geometry" />
        </mxCell>
        <mxCell id="Agiuoe7lh5ngSEae1jQk-20" value="" style="endArrow=none;html=1;rounded=0;entryX=0.5;entryY=1;entryDx=0;entryDy=0;exitX=0.5;exitY=0;exitDx=0;exitDy=0;" edge="1" parent="1" source="Agiuoe7lh5ngSEae1jQk-19" target="Agiuoe7lh5ngSEae1jQk-18">
          <mxGeometry width="50" height="50" relative="1" as="geometry">
            <mxPoint x="260" y="250" as="sourcePoint" />
            <mxPoint x="310" y="200" as="targetPoint" />
          </mxGeometry>
        </mxCell>
        <mxCell id="Agiuoe7lh5ngSEae1jQk-21" value="Soft area" style="rounded=0;whiteSpace=wrap;html=1;fillColor=none;strokeColor=none;fontSize=18;" vertex="1" parent="1">
          <mxGeometry x="110" y="140" width="80" height="20" as="geometry" />
        </mxCell>
        <mxCell id="Agiuoe7lh5ngSEae1jQk-28" value="" style="rounded=0;whiteSpace=wrap;html=1;strokeColor=default;fillColor=#CCCCCC;" vertex="1" parent="1">
          <mxGeometry x="460" y="210" width="20" height="20" as="geometry" />
        </mxCell>
        <mxCell id="Agiuoe7lh5ngSEae1jQk-31" value="" style="rounded=0;whiteSpace=wrap;html=1;strokeColor=default;fillColor=#333333;" vertex="1" parent="1">
          <mxGeometry x="400" y="170" width="20" height="20" as="geometry" />
        </mxCell>
        <mxCell id="Agiuoe7lh5ngSEae1jQk-35" value="" style="rounded=0;whiteSpace=wrap;html=1;strokeColor=default;fillColor=none;fontSize=18;fontStyle=1" vertex="1" parent="1">
          <mxGeometry x="400" y="190" width="20" height="20" as="geometry" />
        </mxCell>
        <mxCell id="Agiuoe7lh5ngSEae1jQk-38" value="P" style="rounded=0;whiteSpace=wrap;html=1;strokeColor=default;fillColor=none;fontSize=18;fontStyle=1" vertex="1" parent="1">
          <mxGeometry x="480" y="170" width="20" height="20" as="geometry" />
        </mxCell>
        <mxCell id="Agiuoe7lh5ngSEae1jQk-42" value="RAID area" style="rounded=0;whiteSpace=wrap;html=1;fillColor=none;strokeColor=none;fontSize=18;" vertex="1" parent="1">
          <mxGeometry x="401" y="140" width="100" height="20" as="geometry" />
        </mxCell>
        <mxCell id="Agiuoe7lh5ngSEae1jQk-43" value="" style="endArrow=classic;html=1;rounded=0;strokeWidth=5;" edge="1" parent="1">
          <mxGeometry width="50" height="50" relative="1" as="geometry">
            <mxPoint x="280" y="200" as="sourcePoint" />
            <mxPoint x="380" y="200" as="targetPoint" />
          </mxGeometry>
        </mxCell>
        <mxCell id="Agiuoe7lh5ngSEae1jQk-44" value="&lt;font style=&quot;font-size: 12px;&quot;&gt;Write back&lt;/font&gt;" style="rounded=0;whiteSpace=wrap;html=1;fillColor=none;strokeColor=none;fontSize=15;fontFamily=Helvetica;" vertex="1" parent="1">
          <mxGeometry x="280" y="210" width="100" height="20" as="geometry" />
        </mxCell>
        <mxCell id="Agiuoe7lh5ngSEae1jQk-46" value="" style="rounded=0;whiteSpace=wrap;html=1;strokeColor=default;fillColor=#333333;" vertex="1" parent="1">
          <mxGeometry x="420" y="170" width="20" height="20" as="geometry" />
        </mxCell>
        <mxCell id="Agiuoe7lh5ngSEae1jQk-47" value="" style="rounded=0;whiteSpace=wrap;html=1;strokeColor=default;fillColor=#333333;" vertex="1" parent="1">
          <mxGeometry x="440" y="170" width="20" height="20" as="geometry" />
        </mxCell>
        <mxCell id="Agiuoe7lh5ngSEae1jQk-48" value="" style="rounded=0;whiteSpace=wrap;html=1;strokeColor=default;fillColor=#333333;" vertex="1" parent="1">
          <mxGeometry x="460" y="170" width="20" height="20" as="geometry" />
        </mxCell>
        <mxCell id="Agiuoe7lh5ngSEae1jQk-50" value="P" style="rounded=0;whiteSpace=wrap;html=1;strokeColor=default;fillColor=none;fontSize=18;fontStyle=1" vertex="1" parent="1">
          <mxGeometry x="480" y="210" width="20" height="20" as="geometry" />
        </mxCell>
        <mxCell id="Agiuoe7lh5ngSEae1jQk-51" value="P" style="rounded=0;whiteSpace=wrap;html=1;strokeColor=default;fillColor=none;fontSize=18;fontStyle=1" vertex="1" parent="1">
          <mxGeometry x="480" y="190" width="20" height="20" as="geometry" />
        </mxCell>
        <mxCell id="Agiuoe7lh5ngSEae1jQk-60" value="" style="rounded=0;whiteSpace=wrap;html=1;strokeColor=default;fillColor=none;fontSize=18;fontStyle=1" vertex="1" parent="1">
          <mxGeometry x="420" y="190" width="20" height="20" as="geometry" />
        </mxCell>
        <mxCell id="Agiuoe7lh5ngSEae1jQk-61" value="" style="rounded=0;whiteSpace=wrap;html=1;strokeColor=default;fillColor=none;fontSize=18;fontStyle=1" vertex="1" parent="1">
          <mxGeometry x="440" y="190" width="20" height="20" as="geometry" />
        </mxCell>
        <mxCell id="Agiuoe7lh5ngSEae1jQk-62" value="" style="rounded=0;whiteSpace=wrap;html=1;strokeColor=default;fillColor=none;fontSize=18;fontStyle=1" vertex="1" parent="1">
          <mxGeometry x="460" y="190" width="20" height="20" as="geometry" />
        </mxCell>
        <mxCell id="Agiuoe7lh5ngSEae1jQk-63" value="" style="rounded=0;whiteSpace=wrap;html=1;strokeColor=default;fillColor=#CCCCCC;" vertex="1" parent="1">
          <mxGeometry x="400" y="210" width="20" height="20" as="geometry" />
        </mxCell>
        <mxCell id="Agiuoe7lh5ngSEae1jQk-64" value="" style="rounded=0;whiteSpace=wrap;html=1;strokeColor=default;fillColor=#CCCCCC;" vertex="1" parent="1">
          <mxGeometry x="420" y="210" width="20" height="20" as="geometry" />
        </mxCell>
        <mxCell id="Agiuoe7lh5ngSEae1jQk-65" value="" style="rounded=0;whiteSpace=wrap;html=1;strokeColor=default;fillColor=#CCCCCC;" vertex="1" parent="1">
          <mxGeometry x="440" y="210" width="20" height="20" as="geometry" />
        </mxCell>
        <mxCell id="Agiuoe7lh5ngSEae1jQk-66" value="" style="shape=datastore;whiteSpace=wrap;html=1;" vertex="1" parent="1">
          <mxGeometry x="220" y="380" width="40" height="40" as="geometry" />
        </mxCell>
        <mxCell id="Agiuoe7lh5ngSEae1jQk-67" value="" style="shape=datastore;whiteSpace=wrap;html=1;" vertex="1" parent="1">
          <mxGeometry x="280" y="380" width="40" height="40" as="geometry" />
        </mxCell>
        <mxCell id="Agiuoe7lh5ngSEae1jQk-68" value="" style="shape=datastore;whiteSpace=wrap;html=1;" vertex="1" parent="1">
          <mxGeometry x="340" y="380" width="40" height="40" as="geometry" />
        </mxCell>
        <mxCell id="Agiuoe7lh5ngSEae1jQk-69" value="" style="shape=datastore;whiteSpace=wrap;html=1;" vertex="1" parent="1">
          <mxGeometry x="400" y="380" width="40" height="40" as="geometry" />
        </mxCell>
        <mxCell id="Agiuoe7lh5ngSEae1jQk-70" value="&lt;font style=&quot;font-size: 18px;&quot;&gt;Block distributor&lt;/font&gt;" style="rounded=1;whiteSpace=wrap;html=1;fillColor=none;" vertex="1" parent="1">
          <mxGeometry x="200" y="290" width="200" height="40" as="geometry" />
        </mxCell>
        <mxCell id="Agiuoe7lh5ngSEae1jQk-71" value="" style="endArrow=classic;startArrow=classic;html=1;rounded=0;" edge="1" parent="1">
          <mxGeometry width="50" height="50" relative="1" as="geometry">
            <mxPoint x="150" y="140" as="sourcePoint" />
            <mxPoint x="200" y="90" as="targetPoint" />
          </mxGeometry>
        </mxCell>
        <mxCell id="Agiuoe7lh5ngSEae1jQk-72" value="Small write" style="rounded=0;whiteSpace=wrap;html=1;fillColor=none;strokeColor=none;fontSize=12;fontFamily=Helvetica;" vertex="1" parent="1">
          <mxGeometry x="90.5" y="100" width="80" height="20" as="geometry" />
        </mxCell>
        <mxCell id="Agiuoe7lh5ngSEae1jQk-73" value="Large write" style="rounded=0;whiteSpace=wrap;html=1;fillColor=none;strokeColor=none;fontSize=12;fontFamily=Helvetica;" vertex="1" parent="1">
          <mxGeometry x="430" y="100" width="80" height="20" as="geometry" />
        </mxCell>
        <mxCell id="Agiuoe7lh5ngSEae1jQk-75" value="" style="endArrow=classic;startArrow=classic;html=1;rounded=0;" edge="1" parent="1">
          <mxGeometry width="50" height="50" relative="1" as="geometry">
            <mxPoint x="455" y="140" as="sourcePoint" />
            <mxPoint x="405" y="90" as="targetPoint" />
          </mxGeometry>
        </mxCell>
        <mxCell id="Agiuoe7lh5ngSEae1jQk-78" value="Read" style="rounded=0;whiteSpace=wrap;html=1;fillColor=none;strokeColor=none;fontSize=12;fontFamily=Helvetica;" vertex="1" parent="1">
          <mxGeometry x="170.5" y="120" width="40" height="20" as="geometry" />
        </mxCell>
        <mxCell id="Agiuoe7lh5ngSEae1jQk-79" value="Read" style="rounded=0;whiteSpace=wrap;html=1;fillColor=none;strokeColor=none;fontSize=12;fontFamily=Helvetica;" vertex="1" parent="1">
          <mxGeometry x="390" y="120" width="40" height="20" as="geometry" />
        </mxCell>
        <mxCell id="Agiuoe7lh5ngSEae1jQk-80" value="" style="endArrow=classic;html=1;rounded=0;strokeWidth=5;" edge="1" parent="1">
          <mxGeometry width="50" height="50" relative="1" as="geometry">
            <mxPoint x="430.5" y="240" as="sourcePoint" />
            <mxPoint x="330.5" y="280" as="targetPoint" />
          </mxGeometry>
        </mxCell>
        <mxCell id="Agiuoe7lh5ngSEae1jQk-81" value="&lt;span style=&quot;font-size: 12px;&quot;&gt;Persist to array&lt;/span&gt;" style="rounded=0;whiteSpace=wrap;html=1;fillColor=none;strokeColor=none;fontSize=15;fontFamily=Helvetica;" vertex="1" parent="1">
          <mxGeometry x="400" y="250" width="100" height="20" as="geometry" />
        </mxCell>
        <mxCell id="Agiuoe7lh5ngSEae1jQk-82" value="" style="rounded=1;whiteSpace=wrap;html=1;fillColor=none;" vertex="1" parent="1">
          <mxGeometry x="10.5" width="520" height="340" as="geometry" />
        </mxCell>
        <mxCell id="Agiuoe7lh5ngSEae1jQk-83" value="" style="rounded=1;whiteSpace=wrap;html=1;fillColor=none;" vertex="1" parent="1">
          <mxGeometry x="10.5" y="360" width="520" height="80" as="geometry" />
        </mxCell>
        <mxCell id="Agiuoe7lh5ngSEae1jQk-84" value="" style="endArrow=classic;html=1;rounded=0;exitX=0;exitY=1;exitDx=0;exitDy=0;entryX=0.5;entryY=0;entryDx=0;entryDy=0;" edge="1" parent="1" source="Agiuoe7lh5ngSEae1jQk-70" target="Agiuoe7lh5ngSEae1jQk-2">
          <mxGeometry width="50" height="50" relative="1" as="geometry">
            <mxPoint x="450.5" y="490" as="sourcePoint" />
            <mxPoint x="340.5" y="470" as="targetPoint" />
          </mxGeometry>
        </mxCell>
        <mxCell id="Agiuoe7lh5ngSEae1jQk-85" value="" style="endArrow=classic;html=1;rounded=0;exitX=0.25;exitY=1;exitDx=0;exitDy=0;entryX=0.5;entryY=0;entryDx=0;entryDy=0;" edge="1" parent="1" source="Agiuoe7lh5ngSEae1jQk-70" target="Agiuoe7lh5ngSEae1jQk-66">
          <mxGeometry width="50" height="50" relative="1" as="geometry">
            <mxPoint x="520.5" y="520" as="sourcePoint" />
            <mxPoint x="570.5" y="470" as="targetPoint" />
          </mxGeometry>
        </mxCell>
        <mxCell id="Agiuoe7lh5ngSEae1jQk-86" value="" style="endArrow=classic;html=1;rounded=0;exitX=0.5;exitY=1;exitDx=0;exitDy=0;entryX=0.5;entryY=0;entryDx=0;entryDy=0;" edge="1" parent="1" source="Agiuoe7lh5ngSEae1jQk-70" target="Agiuoe7lh5ngSEae1jQk-67">
          <mxGeometry width="50" height="50" relative="1" as="geometry">
            <mxPoint x="520.5" y="520" as="sourcePoint" />
            <mxPoint x="570.5" y="470" as="targetPoint" />
          </mxGeometry>
        </mxCell>
        <mxCell id="Agiuoe7lh5ngSEae1jQk-87" value="" style="endArrow=classic;html=1;rounded=0;exitX=0.75;exitY=1;exitDx=0;exitDy=0;entryX=0.5;entryY=0;entryDx=0;entryDy=0;" edge="1" parent="1" source="Agiuoe7lh5ngSEae1jQk-70" target="Agiuoe7lh5ngSEae1jQk-68">
          <mxGeometry width="50" height="50" relative="1" as="geometry">
            <mxPoint x="520.5" y="520" as="sourcePoint" />
            <mxPoint x="570.5" y="470" as="targetPoint" />
          </mxGeometry>
        </mxCell>
        <mxCell id="Agiuoe7lh5ngSEae1jQk-88" value="" style="endArrow=classic;html=1;rounded=0;exitX=1;exitY=1;exitDx=0;exitDy=0;entryX=0.5;entryY=0;entryDx=0;entryDy=0;" edge="1" parent="1" source="Agiuoe7lh5ngSEae1jQk-70" target="Agiuoe7lh5ngSEae1jQk-69">
          <mxGeometry width="50" height="50" relative="1" as="geometry">
            <mxPoint x="520.5" y="520" as="sourcePoint" />
            <mxPoint x="570.5" y="470" as="targetPoint" />
          </mxGeometry>
        </mxCell>
        <mxCell id="Agiuoe7lh5ngSEae1jQk-89" value="Physcial flash array" style="rounded=0;whiteSpace=wrap;html=1;fillColor=none;strokeColor=none;fontSize=15;fontFamily=Helvetica;" vertex="1" parent="1">
          <mxGeometry y="360" width="160" height="40" as="geometry" />
        </mxCell>
      </root>
    </mxGraphModel>
  </diagram>
</mxfile>
